<svg xmlns="http://www.w3.org/2000/svg" viewBox="0 0 100 100">
  <!-- Background -->
  <rect width="100" height="100" fill="#f0fdf4"/>
  
  <!-- Main rice stalk 1 -->
  <path d="M 35 85 Q 33 70 35 55 Q 37 40 40 25" stroke="#4b7c3f" stroke-width="2.5" fill="none" stroke-linecap="round"/>
  
  <!-- Main rice stalk 2 -->
  <path d="M 50 90 Q 50 70 50 50 Q 50 35 50 20" stroke="#5a9c3f" stroke-width="2.5" fill="none" stroke-linecap="round"/>
  
  <!-- Main rice stalk 3 -->
  <path d="M 65 85 Q 67 70 65 55 Q 63 40 60 25" stroke="#4b7c3f" stroke-width="2.5" fill="none" stroke-linecap="round"/>
  
  <!-- Rice grain cluster 1 (left) -->
  <g>
    <!-- Small grains -->
    <ellipse cx="30" cy="25" rx="2.5" ry="5" fill="#f5d961" transform="rotate(-25 30 25)"/>
    <ellipse cx="32" cy="23" rx="2.5" ry="5" fill="#f5d961" transform="rotate(-10 32 23)"/>
    <ellipse cx="34" cy="25" rx="2.5" ry="5" fill="#f5d961" transform="rotate(5 34 25)"/>
    <ellipse cx="35" cy="28" rx="2.5" ry="5" fill="#f5d961" transform="rotate(20 35 28)"/>
    <ellipse cx="33" cy="31" rx="2.5" ry="5" fill="#f5d961" transform="rotate(35 33 31)"/>
    <ellipse cx="30" cy="30" rx="2.5" ry="5" fill="#f5d961" transform="rotate(-35 30 30)"/>
  </g>
  
  <!-- Rice grain cluster 2 (center) -->
  <g>
    <ellipse cx="48" cy="15" rx="2.5" ry="5" fill="#f5d961" transform="rotate(-25 48 15)"/>
    <ellipse cx="50" cy="13" rx="2.5" ry="5" fill="#f5d961" transform="rotate(-10 50 13)"/>
    <ellipse cx="52" cy="15" rx="2.5" ry="5" fill="#f5d961" transform="rotate(5 52 15)"/>
    <ellipse cx="53" cy="18" rx="2.5" ry="5" fill="#f5d961" transform="rotate(20 53 18)"/>
    <ellipse cx="51" cy="21" rx="2.5" ry="5" fill="#f5d961" transform="rotate(35 51 21)"/>
    <ellipse cx="48" cy="20" rx="2.5" ry="5" fill="#f5d961" transform="rotate(-35 48 20)"/>
  </g>
  
  <!-- Rice grain cluster 3 (right) -->
  <g>
    <ellipse cx="66" cy="25" rx="2.5" ry="5" fill="#f5d961" transform="rotate(-25 66 25)"/>
    <ellipse cx="68" cy="23" rx="2.5" ry="5" fill="#f5d961" transform="rotate(-10 68 23)"/>
    <ellipse cx="70" cy="25" rx="2.5" ry="5" fill="#f5d961" transform="rotate(5 70 25)"/>
    <ellipse cx="71" cy="28" rx="2.5" ry="5" fill="#f5d961" transform="rotate(20 71 28)"/>
    <ellipse cx="69" cy="31" rx="2.5" ry="5" fill="#f5d961" transform="rotate(35 69 31)"/>
    <ellipse cx="66" cy="30" rx="2.5" ry="5" fill="#f5d961" transform="rotate(-35 66 30)"/>
  </g>
  
  <!-- Leaf 1 (left) -->
  <path d="M 35 50 Q 25 48 20 45" stroke="#6ba84f" stroke-width="2" fill="none" stroke-linecap="round"/>
  
  <!-- Leaf 2 (right) -->
  <path d="M 65 50 Q 75 48 80 45" stroke="#6ba84f" stroke-width="2" fill="none" stroke-linecap="round"/>
  
  <!-- Soil/roots indicator -->
  <ellipse cx="50" cy="92" rx="18" ry="6" fill="#8b6f47" opacity="0.3"/>
</svg>
